<?xml version="1.0" encoding="utf-8"?>
<!-- Generator: Adobe Illustrator 24.1.2, SVG Export Plug-In . SVG Version: 6.00 Build 0)  -->
<svg version="1.1" id="Capa_1" xmlns="http://www.w3.org/2000/svg" xmlns:xlink="http://www.w3.org/1999/xlink" x="0px" y="0px"
	 viewBox="0 0 512 512" style="enable-background:new 0 0 512 512;" xml:space="preserve">
<style type="text/css">
	.st0{fill:#FFFFFF;}
</style>
<g>
	<g>
		<path class="st0" d="M445.9,178c-9-6.2-12.2-17.8-7.4-27.7c1.1-3.8,15.2-22,2.9-43.3c-12.4-21.4-35.2-18.1-39-19.1
			c-10.9-0.8-19.4-9.3-20.3-20.3c-1-3.9,2.2-26.6-19.1-39c-21.4-12.4-39.5,1.9-43.3,2.9c-9.9,4.8-21.5,1.6-27.7-7.4
			C289.2,21.3,280.6,0,256,0c-24.7,0-33.3,21.4-36,24.2c-6.2,9.1-17.8,12.2-27.7,7.4c-3.8-1.1-22-15.2-43.3-2.9
			c-21.4,12.4-18.1,35.2-19.1,39c-0.8,10.9-9.3,19.4-20.3,20.3c-3.9,1-26.6-2.2-39,19.1c-12.4,21.4,1.9,39.5,2.9,43.3
			c4.8,9.9,1.6,21.5-7.4,27.7c-2.8,2.8-24.2,11.4-24.2,36c0,24.7,21.4,33.3,24.2,36c9,6.2,12.2,17.8,7.4,27.7
			c-1.1,3.8-15.2,22-2.9,43.3c12.4,21.4,35.2,18.1,39,19.1c7.5,0.6,13.9,4.8,17.4,10.9l-45.1,96.2c-2.5,5.4-1.8,11.7,1.9,16.4
			s9.6,6.9,15.5,5.7l47.8-9.8c0.3-0.1,0.6,0.1,0.7,0.3l24.3,44c6.2,11.2,22.5,10.7,27.9-0.9l14.5-30.9c1.8-3.8,0.1-8.2-3.6-10
			c-3.7-1.8-8.2-0.1-10,3.6l-14.5,30.9c-0.1,0.1-0.2,0.4-0.6,0.4c-0.4,0-0.6-0.2-0.6-0.4l-24.3-44c-3.3-6-10.1-9.2-16.9-7.8
			l-47.8,9.8c-0.2,0-0.4,0.1-0.7-0.2c-0.3-0.3-0.1-0.6-0.1-0.7l36.2-77.2c2.4,9.6,8.6,17.8,17.3,22.9c21.4,12.4,39.5-1.9,43.3-2.9
			c9.9-4.7,21.5-1.6,27.7,7.4l5.5,8c0.1,0.2,0.3,0.3,0.4,0.5l-10,21.3c-1.8,3.8-0.1,8.2,3.6,10c3.7,1.7,8.2,0.2,10-3.6l8-17.1
			c5.6,3.2,11.9,5,18.6,5c6.6,0,13-1.8,18.6-5L312,503c5.4,11.6,21.7,12.1,27.9,0.9l24.3-44c0.1-0.3,0.4-0.4,0.7-0.3l47.8,9.8
			c5.9,1.2,11.8-1,15.5-5.7c3.7-4.7,4.4-11,1.9-16.4L385,351.1c3.5-6.1,9.9-10.4,17.4-10.9c3.9-1,26.6,2.2,39-19.1
			c12.4-21.4-1.9-39.5-2.9-43.3c-4.8-9.9-1.6-21.5,7.4-27.7c2.8-2.8,24.2-11.4,24.2-36C470,189.3,448.7,180.8,445.9,178L445.9,178z
			 M416.5,454.4c-0.3,0.3-0.5,0.3-0.7,0.2l-47.8-9.8c-6.8-1.4-13.5,1.7-16.9,7.8l-24.3,44c-0.1,0.1-0.2,0.4-0.6,0.4
			c-0.4,0-0.5-0.3-0.6-0.4l-39.5-84.1c0.1-0.2,0.3-0.3,0.4-0.5l5.5-8c6.2-9,17.8-12.2,27.7-7.4c3.8,1.1,22,15.2,43.3,2.9
			c8.7-5,14.9-13.3,17.3-22.9l36.2,77.2C416.6,453.8,416.7,454.1,416.5,454.4L416.5,454.4z M437.4,237.7
			c-15.2,10.4-20.5,30-12.5,46.6c1.5,4.8,11.3,15.7,3.4,29.3c-7.8,13.5-22.1,10.5-27.1,11.7c-18.4,1.4-32.7,15.7-34.1,34.1
			c-1.1,4.9,1.9,19.3-11.7,27.1c-13.5,7.8-24.4-1.9-29.3-3.4c-16.6-8-36.2-2.7-46.6,12.5c-3.3,3.3-7.6,17.6-23.6,17.6
			c-16.1,0-20-14-23.6-17.6c-7.1-10.4-18.6-16.2-30.4-16.2c-20.3,0-27.9,17.3-45.4,7.2c-6.4-3.7-10.4-10-10.9-17.4l-0.7-9.7
			c-1.4-18.4-15.7-32.7-34.1-34.1c-5-1.1-19.3,1.9-27.1-11.7c-7.8-13.5,1.9-24.4,3.4-29.3c8-16.6,2.7-36.2-12.5-46.6
			c-3.7-3.4-17.6-8-17.6-23.6c0-15.6,13.9-20.2,17.6-23.6c15.2-10.4,20.5-30,12.5-46.6c-1.5-4.8-11.3-15.7-3.4-29.3
			c7.8-13.5,22.1-10.5,27.1-11.7c18.4-1.4,32.7-15.7,34.1-34.1c1.1-4.9-1.9-19.3,11.7-27.1c13.5-7.8,24.4,1.9,29.3,3.4
			c16.6,8,36.2,2.8,46.6-12.5c3.4-3.7,8-17.6,23.6-17.6c15.6,0,20.2,13.9,23.6,17.6c10.4,15.2,30,20.5,46.6,12.5
			c4.8-1.5,15.7-11.3,29.3-3.4c13.5,7.8,10.5,22.1,11.7,27.1c1.4,18.4,15.7,32.7,34.1,34.1c5,1.1,19.3-1.9,27.1,11.7
			c7.8,13.5-1.9,24.4-3.4,29.3c-8,16.6-2.7,36.2,12.5,46.6c3.7,3.4,17.6,8,17.6,23.6C455,229.7,441.2,234.2,437.4,237.7L437.4,237.7
			z"/>
		<path class="st0" d="M256,67.8c-80.6,0-146.3,65.6-146.3,146.3S175.4,360.3,256,360.3c35.4,0,69.5-12.8,96.1-36
			c26.4-23,43.6-54.6,48.6-89.1c0.6-4.1-2.2-7.9-6.3-8.5c-4.1-0.6-7.9,2.2-8.5,6.3c-9.3,64.3-64.7,112.2-129.9,112.2
			c-72.4,0-131.3-58.9-131.3-131.3S183.6,82.8,256,82.8c67,0,123.1,50.2,130.5,116.7c0.5,4.1,4.2,7.1,8.3,6.6
			c4.1-0.5,7.1-4.2,6.6-8.3C393.2,123.7,330.7,67.8,256,67.8L256,67.8z"/>
		<path class="st0" d="M353.2,191.9c1.2-6.9-4.8-12.9-11.7-11.7c-8.3,1.5-29,6.1-48.7,17.2c-5-30-21-55.7-28.2-66.2
			c-4.1-6-13-6-17.1,0c-7.3,10.5-23.2,36.2-28.2,66.2c-19.7-11.1-40.3-15.7-48.7-17.2c-6.9-1.2-12.9,4.8-11.7,11.7
			c4.9,27.2,17.7,57.8,39.2,75.7h-24.5c-4.1,0-7.5,3.4-7.5,7.5s3.4,7.5,7.5,7.5h165c4.1,0,7.5-3.4,7.5-7.5s-3.4-7.5-7.5-7.5H314
			C335.4,249.6,348.2,219.1,353.2,191.9L353.2,191.9z M256,145.4c7.5,11.9,20.4,35.7,22.9,61.3c-10.1,8-17.8,17.3-22.9,27.7
			c-5.1-10.4-12.8-19.7-22.9-27.7C235.6,181.1,248.5,157.4,256,145.4L256,145.4z M175.2,196.5c38.6,9.1,73.3,31.4,73.3,71v0.2h-19.2
			C193.7,257.6,179.7,215.4,175.2,196.5L175.2,196.5z M263.5,267.6v-0.2c0-39.5,34.7-61.8,73.3-71c-4.5,18.9-18.5,61.2-54.2,71.1
			L263.5,267.6z"/>
	</g>
</g>
</svg>
